Run_30001
nRows=4
nColumns=164

# SIMM Motion File Header:
name Run_30001
datacolumns 164
datarows 4
otherdata 1
range 4.03000000 4.06000000
endheader
time	pelvis_tilt	pelvis_list	pelvis_rotation	pelvis_tx	pelvis_ty	pelvis_tz	hip_flexion_r	hip_adduction_r	hip_rotation_r	knee_angle_r	ankle_angle_r	hip_flexion_l	hip_adduction_l	hip_rotation_l	knee_angle_l	ankle_angle_l	lumbar_extension	lumbar_bending	lumbar_rotation	arm_flex_r	arm_add_r	arm_rot_r	elbow_flex_r	pro_sup_r	arm_flex_l	arm_add_l	arm_rot_l	elbow_flex_l	pro_sup_l	subtalar_angle_r	mtp_angle_r	subtalar_angle_l	mtp_angle_l	wrist_flex_r	wrist_dev_r	wrist_flex_l	wrist_dev_l	LASI_tx	LASI_ty	LASI_tz	RASI_tx	RASI_ty	RASI_tz	LPSI_tx	LPSI_ty	LPSI_tz	RPSI_tx	RPSI_ty	RPSI_tz	RTH1_tx	RTH1_ty	RTH1_tz	RTH2_tx	RTH2_ty	RTH2_tz	RTH3_tx	RTH3_ty	RTH3_tz	LTH1_tx	LTH1_ty	LTH1_tz	LTH2_tx	LTH2_ty	LTH2_tz	LTH3_tx	LTH3_ty	LTH3_tz	RTB1_tx	RTB1_ty	RTB1_tz	RTB2_tx	RTB2_ty	RTB2_tz	RTB3_tx	RTB3_ty	RTB3_tz	LTB1_tx	LTB1_ty	LTB1_tz	LTB2_tx	LTB2_ty	LTB2_tz	LTB3_tx	LTB3_ty	LTB3_tz	RCAL_tx	RCAL_ty	RCAL_tz	RTOE_tx	RTOE_ty	RTOE_tz	RMT5_tx	RMT5_ty	RMT5_tz	LCAL_tx	LCAL_ty	LCAL_tz	LTOE_tx	LTOE_ty	LTOE_tz	LACR_tx	LACR_ty	LACR_tz	RACR_tx	RACR_ty	RACR_tz	CLAV_tx	CLAV_ty	CLAV_tz	C7_tx	C7_ty	C7_tz	RUA1_tx	RUA1_ty	RUA1_tz	RUA2_tx	RUA2_ty	RUA2_tz	RUA3_tx	RUA3_ty	RUA3_tz	RLEL_tx	RLEL_ty	RLEL_tz	RMEL_tx	RMEL_ty	RMEL_tz	LUA1_tx	LUA1_ty	LUA1_tz	LUA2_tx	LUA2_ty	LUA2_tz	LUA3_tx	LUA3_ty	LUA3_tz	LLEL_tx	LLEL_ty	LLEL_tz	LMEL_tx	LMEL_ty	LMEL_tz	RFAsuperior_tx	RFAsuperior_ty	RFAsuperior_tz	RFAradius_tx	RFAradius_ty	RFAradius_tz	RFAulna_tx	RFAulna_ty	RFAulna_tz	LFAsuperior_tx	LFAsuperior_ty	LFAsuperior_tz	LFAradius_tx	LFAradius_ty	LFAradius_tz	LFAulna_tx	LFAulna_ty	LFAulna_tz	LMT5_tx	LMT5_ty	LMT5_tz
      4.03000000	     -8.58529357	      6.12256076	     -1.74707863	      0.74236762	      1.05534100	     -0.30548390	     -5.55600130	     -2.05451590	     -3.90449795	    -22.46687344	    -20.29437295	     41.28580693	      6.75065689	     -6.24107716	    -61.28507810	     -4.51112889	      0.52676709	     -4.22436457	      6.76160526	    -16.47314413	    -16.31376926	      0.96466509	    103.45261812	     83.34083308	    -42.81465801	    -36.99066042	     15.43278588	    104.82818852	     65.60112802	      0.00000000	      0.00000000	      0.00000000	      0.00000000	      0.00000000	      0.00000000	      0.00000000	      0.00000000	      0.75383189	      1.06203923	     -0.43574807	      0.73905868	      1.03761949	     -0.18049591	      0.57029831	      1.14295844	     -0.35388846	      0.56998618	      1.13543777	     -0.26889272	      0.64068289	      0.91134345	     -0.13492989	      0.65556957	      0.76772506	     -0.15534531	      0.55012689	      0.68843671	     -0.17917918	      0.71805110	      0.96832708	     -0.49737093	      0.82791354	      0.89168998	     -0.46853687	      0.81646131	      0.73775943	     -0.46188957	      0.50622169	      0.43987830	     -0.24371240	      0.41008125	      0.38071790	     -0.19814090	      0.38579577	      0.28043430	     -0.25982563	      0.87448294	      0.52385530	     -0.39249029	      0.79303822	      0.47436846	     -0.46077611	      0.76896080	      0.34569647	     -0.38482193	      0.21089710	      0.25604241	     -0.29700413	      0.36916569	      0.08472898	     -0.28892322	      0.30844792	      0.07188235	     -0.21762841	      0.59160992	      0.26958255	     -0.37393139	      0.79490313	      0.15811993	     -0.36645889	      0.71531856	      1.60270746	     -0.46070657	      0.72282442	      1.57340411	     -0.13172033	      0.79550791	      1.53995829	     -0.28223966	      0.65970755	      1.61460563	     -0.31010673	      0.66851944	      1.46651968	     -0.04871851	      0.58972585	      1.39665776	     -0.06954517	      0.63074132	      1.35460663	     -0.01964266	      0.61698927	      1.25891791	      0.00214942	      0.57748962	      1.24128970	     -0.07005999	      0.62996530	      1.54959056	     -0.55685996	      0.54188225	      1.50428743	     -0.54507768	      0.55966320	      1.47032991	     -0.61699277	      0.51651354	      1.39840638	     -0.65997974	      0.45709784	      1.39373534	     -0.60783499	      0.68642137	      1.21937629	     -0.01783144	      0.86036296	      1.22343978	     -0.12521553	      0.84160583	      1.15717292	     -0.10727773	      0.56753166	      1.28741676	     -0.62548402	      0.66016666	      1.21334329	     -0.52169948	      0.60616028	      1.17501199	     -0.53721289	      0.75641055	      0.14090701	     -0.44730761
      4.04000000	     -8.81969785	      6.04269341	     -1.43105502	      0.74358402	      1.05957087	     -0.30679213	     -5.76986082	     -2.12946465	     -3.67534322	    -24.30372256	    -21.76862776	     40.69923940	      7.27075866	     -5.93065272	    -55.54151089	     -5.47586661	      1.01886949	     -4.10256133	      6.85180802	    -17.00243207	    -16.43875471	      1.14067061	    104.37032627	     84.77768309	    -44.43234987	    -37.03108763	     14.68864699	    105.48975836	     65.25255569	      0.00000000	      0.00000000	      0.00000000	      0.00000000	      0.00000000	      0.00000000	      0.00000000	      0.00000000	      0.75530653	      1.06710048	     -0.43646096	      0.74054639	      1.04212197	     -0.18353062	      0.57197305	      1.14764175	     -0.35402528	      0.57199106	      1.13981438	     -0.26928736	      0.64152291	      0.91674051	     -0.13512633	      0.65616852	      0.77198221	     -0.15569661	      0.55012850	      0.69334289	     -0.17719636	      0.71586115	      0.97045207	     -0.49836660	      0.82640329	      0.89407436	     -0.46825167	      0.81328398	      0.73905000	     -0.46042107	      0.49899026	      0.44585770	     -0.24079949	      0.40126264	      0.39035813	     -0.19500948	      0.37199698	      0.29146731	     -0.25622383	      0.87991451	      0.52499981	     -0.39169026	      0.80303388	      0.46818000	     -0.45978078	      0.78925707	      0.33869756	     -0.38199372	      0.19763096	      0.27677760	     -0.29095851	      0.34699090	      0.09658129	     -0.28962448	      0.28522346	      0.08267286	     -0.22063811	      0.61892679	      0.24831177	     -0.37077242	      0.83001186	      0.15343056	     -0.35901331	      0.71405768	      1.60735579	     -0.46080069	      0.72356128	      1.57775758	     -0.13287164	      0.79514755	      1.54469214	     -0.28354305	      0.65941978	      1.61847893	     -0.31028706	      0.66960510	      1.47166575	     -0.04959648	      0.59069872	      1.40206336	     -0.06927688	      0.63167978	      1.36036266	     -0.01908490	      0.61776597	      1.26405297	      0.00260868	      0.57754282	      1.24652521	     -0.06938566	      0.62732637	      1.55639931	     -0.55605555	      0.53907962	      1.51212958	     -0.54385643	      0.55532421	      1.47883518	     -0.61642322	      0.51029079	      1.40771045	     -0.65943562	      0.45161989	      1.40375808	     -0.60642503	      0.68698612	      1.22513386	     -0.01841995	      0.85962162	      1.23166458	     -0.12942491	      0.84201241	      1.16506080	     -0.10986269	      0.56090830	      1.29652771	     -0.62605882	      0.65461481	      1.22125679	     -0.52332690	      0.59985348	      1.18369837	     -0.53786149	      0.79339445	      0.13007539	     -0.43911426
      4.05000000	     -8.91497158	      5.67478564	     -1.00750187	      0.74422216	      1.06300227	     -0.30811072	     -5.87948736	     -1.66267864	     -2.80575206	    -26.71158717	    -22.30184814	     39.73050835	      7.63876201	     -5.29753408	    -49.62138641	     -6.34767516	      1.24799699	     -3.66677240	      6.73623356	    -17.44540330	    -16.55959487	      1.25956242	    104.94751520	     86.52139972	    -45.59558860	    -37.01464410	     14.05715353	    105.96351088	     65.34993230	      0.00000000	      0.00000000	      0.00000000	      0.00000000	      0.00000000	      0.00000000	      0.00000000	      0.00000000	      0.75541459	      1.07110745	     -0.43718370	      0.74195598	      1.04597709	     -0.18641031	      0.57226949	      1.15127872	     -0.35415888	      0.57325329	      1.14388467	     -0.26951003	      0.64350126	      0.92117918	     -0.13535298	      0.65863785	      0.77538894	     -0.15642854	      0.55239844	      0.69672883	     -0.17518790	      0.71347416	      0.97066138	     -0.49929933	      0.82430633	      0.89449199	     -0.46780965	      0.80926393	      0.73856029	     -0.45997162	      0.49349412	      0.45073109	     -0.23827791	      0.39367245	      0.39967701	     -0.19252284	      0.35864292	      0.30312423	     -0.25383476	      0.88310746	      0.52461186	     -0.39101962	      0.81160024	      0.46077501	     -0.45877153	      0.80791932	      0.33157081	     -0.37870800	      0.18349728	      0.29739263	     -0.28392521	      0.32478559	      0.11124676	     -0.29392873	      0.26502338	      0.09569219	     -0.22468210	      0.64583618	      0.22736127	     -0.36682114	      0.86339222	      0.15018510	     -0.35145460	      0.71303112	      1.61081157	     -0.46111851	      0.72405633	      1.58086804	     -0.13379924	      0.79499983	      1.54830016	     -0.28456230	      0.65917050	      1.62130816	     -0.31048158	      0.67029183	      1.47484659	     -0.05071833	      0.59112627	      1.40582716	     -0.06932653	      0.63214202	      1.36441182	     -0.01895854	      0.61798191	      1.26807425	      0.00307826	      0.57700241	      1.25052439	     -0.06885126	      0.62517031	      1.56142087	     -0.55566886	      0.53665072	      1.51802648	     -0.54273388	      0.55164407	      1.48549469	     -0.61596218	      0.50524552	      1.41502585	     -0.65909402	      0.44733396	      1.41141742	     -0.60541164	      0.68672496	      1.22925806	     -0.01894930	      0.85815508	      1.23715306	     -0.13330905	      0.84157561	      1.17024459	     -0.11169352	      0.55581639	      1.30375592	     -0.62674823	      0.65029695	      1.22752346	     -0.52472776	      0.59518685	      1.19040134	     -0.53885607	      0.82927592	      0.12092382	     -0.43062237
      4.06000000	     -8.88602963	      5.13793936	     -0.60345742	      0.74482370	      1.06557170	     -0.30936598	     -5.83375992	     -0.90496727	     -1.84927733	    -29.70360950	    -22.22701389	     38.30223765	      7.87507755	     -4.42934415	    -43.48635913	     -7.02227027	      1.32617355	     -3.03658322	      6.51850322	    -17.86854331	    -16.65570402	      1.32064370	    105.06437482	     87.63572548	    -46.38152671	    -36.92155245	     13.51987922	    106.24088076	     65.75183126	      0.00000000	      0.00000000	      0.00000000	      0.00000000	      0.00000000	      0.00000000	      0.00000000	      0.00000000	      0.75530666	      1.07370014	     -0.43820597	      0.74341314	      1.04941172	     -0.18829918	      0.57234709	      1.15350223	     -0.35459087	      0.57392109	      1.14772521	     -0.26952794	      0.64668135	      0.92421166	     -0.13567947	      0.66253541	      0.77781769	     -0.15768538	      0.55652018	      0.69869094	     -0.17354856	      0.71142252	      0.96964107	     -0.49986541	      0.82158606	      0.89279195	     -0.46758777	      0.80431458	      0.73653039	     -0.46032810	      0.48954889	      0.45472403	     -0.23651507	      0.38752615	      0.40866402	     -0.19067652	      0.34639447	      0.31524393	     -0.25254666	      0.88367617	      0.52251874	     -0.39032672	      0.81790979	      0.45244326	     -0.45736716	      0.82439355	      0.32425656	     -0.37536006	      0.17016752	      0.31848973	     -0.27735733	      0.30313543	      0.12744282	     -0.29945243	      0.24653639	      0.11089254	     -0.22797223	      0.67168155	      0.20705371	     -0.36240724	      0.89425236	      0.14837808	     -0.34431339	      0.71227681	      1.61316151	     -0.46177226	      0.72431556	      1.58284305	     -0.13454859	      0.79499408	      1.55057564	     -0.28557841	      0.65894910	      1.62324117	     -0.31084115	      0.67055076	      1.47643854	     -0.05172325	      0.59092828	      1.40812580	     -0.06979650	      0.63188360	      1.36691601	     -0.01931452	      0.61754891	      1.27092631	      0.00318082	      0.57595614	      1.25342603	     -0.06864028	      0.62361577	      1.56479427	     -0.55581118	      0.53479819	      1.52200296	     -0.54179412	      0.54874388	      1.49030640	     -0.61562730	      0.50157150	      1.42021425	     -0.65900055	      0.44433704	      1.41657390	     -0.60482610	      0.68571150	      1.23184424	     -0.01947762	      0.85608374	      1.23932268	     -0.13574563	      0.84020073	      1.17244214	     -0.11300824	      0.55244159	      1.30896361	     -0.62761966	      0.64743392	      1.23202995	     -0.52604891	      0.59228730	      1.19499050	     -0.54015826	      0.86321198	      0.11355292	     -0.42246222
